<?xml version="1.0" encoding="utf-8"?>
<!-- Generator: Adobe Illustrator 18.0.0, SVG Export Plug-In . SVG Version: 6.00 Build 0)  -->
<!DOCTYPE svg PUBLIC "-//W3C//DTD SVG 1.1//EN" "http://www.w3.org/Graphics/SVG/1.1/DTD/svg11.dtd">
<svg version="1.1" id="Layer_1" xmlns="http://www.w3.org/2000/svg" xmlns:xlink="http://www.w3.org/1999/xlink" x="0px" y="0px"
	 viewBox="0 0 356.3 350.1" enable-background="new 0 0 356.3 350.1" xml:space="preserve">
<g>
	<circle fill="#6A386B" cx="174.3" cy="52.6" r="39.5"/>
	<circle fill="#6A386B" cx="291.7" cy="52.6" r="39.5"/>
	<path fill="#6A386B" d="M333.4,227.8c0,56.6-45.8,99.6-102.2,99.6c-20.2,0-39-5.9-54.8-15.9c-15.8,10-34.6,15.9-54.8,15.9
		c-56.6,0-102.2-44.2-102.2-100.8V12.3h84.4v217.1c0,8.4,6.8,15.1,15.1,15.1c8.4,0,15.1-6.8,15.1-15.1V102.1h84.4v127.5
		c0,8.5,6.8,15.3,15.3,15.3s15.3-6.8,15.3-15.3V102.1h84.4V227.8z"/>
</g>
</svg>
